<svg id="Layer_1" data-name="Layer 1" xmlns="http://www.w3.org/2000/svg" viewBox="0 0 850.3842 643.467"><defs><style>.cls-1,.cls-2{fill:none;stroke:red;}.cls-1{stroke-width:0.0028px;}.cls-2{stroke-width:0.0028px;}</style></defs><title>fixture_som3</title><path id="path3690" class="cls-1" d="M191.5083,764.1816l-.687-619.4248s.9146-10.3711,11.4219-8.9238,829.38.7227,829.38.7227,10.0214-1.5625,9.5644,10.0156c-.6191,23.8574-.4277,32.4355-.4277,32.4355l-25.584-.48s-12.8457.6777-13.3047,14.1855c-.4551,13.5078,1.9209,566.335,1.9209,566.335l15.0586-.65c18.332-.7891,22.0674,7.51,22.0674,7.51h0c.3242,10.9355-1.1445,12.6054-7.7344,12.9179l-827.7422.3125c-10.7851.49-14.1938-7.3242-13.9331-14.9551Z" transform="translate(-190.8199 -135.6931)"/><g id="layer1"><path id="path21" class="cls-2" d="M633.4219,749.3965l350.416-.4395s-10.918-.0215-.584,0c5.84.01,6.6582-5.5957,6.6582-5.5957l.0684-56.0625h0a2.5476,2.5476,0,0,0-2.3008-2.4609c-.9219-.0059-.2695.0039-.7168,0a2.2361,2.2361,0,0,1-2.3242-2.4707l-.0469-18.125c.0137-1.4238.3828-2.502,2.5645-2.3906h0l.373-.0118c2.6094-.0742,2.5078-2.1113,2.5078-2.1113V510.7529s.0137,5.8506,0-.0586c-.0136-5.9238-7.3965-6.21-7.3965-6.21l-350.3183.0517h0c-6.4.0606-6.8457,6.2071-6.8457,6.2071.2011,68.6806.4355,125.7548.3476,148.97a1.8851,1.8851,0,0,0,1.9864,2.1445l.9257.0117c1.9825.0215,2.2676,1.0411,2.2227,2.1309l.0645,18.8262c-.0059.8379-.66,2.1777-2.7012,2.1015-.8594-.0058.2148.0118-.6426.0039-1.7715-.0117-1.9238,1.8965-1.918,2.4356.1563,18.7422-.0332,33.5351-.1035,54.3008.0625,3.6465,2.0274,7.6543,7.7637,7.7285Z" transform="translate(-190.8199 -135.6931)"/></g><g id="layer1-2" data-name="layer1"><path id="path21-2" data-name="path21" class="cls-2" d="M633.4219,484.0869l350.416-.4394s-10.918-.0215-.584,0c5.84.01,6.6582-5.5948,6.6582-5.5948l.0684-56.0634h0a2.5468,2.5468,0,0,0-2.3008-2.46c-.9219-.0059-.2695.0039-.7187,0a2.2364,2.2364,0,0,1-2.3223-2.4717l-.0469-18.125c.0137-1.4238.3828-2.5019,2.5645-2.3906h0l.373-.0117c2.6074-.0733,2.5078-2.1114,2.5078-2.1114V245.4434s.0137,5.8505,0-.06c-.0136-5.9229-7.3965-6.209-7.3965-6.209l-350.3183.0518h0c-6.4.0605-6.8457,6.207-6.8457,6.207.2011,68.6807.4355,125.7549.3476,148.9707a1.8849,1.8849,0,0,0,1.9864,2.1436l.9257.0117c1.9825.0224,2.2676,1.042,2.2227,2.1308l.0645,18.8262c-.0059.8379-.66,2.1777-2.7012,2.1016-.8594-.0059.2148.0117-.6426.0039-1.7715-.0117-1.9238,1.8974-1.918,2.4365.1563,18.7412-.0332,33.5342-.1035,54.3008.0625,3.6455,2.0274,7.6533,7.7637,7.7275Z" transform="translate(-190.8199 -135.6931)"/></g><g id="layer1-3" data-name="layer1"><path id="path21-3" data-name="path21" class="cls-2" d="M254.7129,749.3965l350.417-.4395s-10.918-.0215-.584,0c5.8408.01,6.6592-5.5957,6.6592-5.5957l.0684-56.0625h0a2.5511,2.5511,0,0,0-2.3018-2.4609c-.9219-.0059-.27.0039-.7188,0a2.2356,2.2356,0,0,1-2.3222-2.4707l-.0469-18.125c.0137-1.4238.3828-2.502,2.5645-2.3906h0l.373-.0118c2.6084-.0742,2.5068-2.1113,2.5068-2.1113V510.7529s.0137,5.8506,0-.0586c-.0136-5.9238-7.3955-6.21-7.3955-6.21l-350.3178.0517h0c-6.4019.0606-6.8472,6.2071-6.8472,6.2071.2017,68.6806.437,125.7548.3476,148.97a1.8861,1.8861,0,0,0,1.9878,2.1445l.9253.0117c1.9825.0215,2.2676,1.0411,2.2227,2.1309l.0644,18.8262c-.0058.8379-.6606,2.1777-2.7011,2.1015-.86-.0058.2148.0118-.6431.0039-1.772-.0117-1.9243,1.8965-1.9185,2.4356.1573,18.7422-.0317,33.5351-.102,54.3008.0615,3.6465,2.0264,7.6543,7.7622,7.7285Z" transform="translate(-190.8199 -135.6931)"/></g><g id="layer1-4" data-name="layer1"><path id="path21-4" data-name="path21" class="cls-2" d="M254.7129,484.0869l350.417-.4394s-10.918-.0215-.584,0c5.8408.01,6.6592-5.5948,6.6592-5.5948l.0684-56.0634h0a2.55,2.55,0,0,0-2.3018-2.46c-.9219-.0059-.27.0039-.7188,0a2.2364,2.2364,0,0,1-2.3222-2.4717l-.0469-18.125c.0137-1.4238.3828-2.5019,2.5645-2.3906h0l.373-.0117c2.6084-.0733,2.5068-2.1114,2.5068-2.1114V245.4434s.0137,5.8505,0-.06c-.0136-5.9229-7.3955-6.209-7.3955-6.209l-350.3178.0518h0c-6.4019.0605-6.8472,6.207-6.8472,6.207.2017,68.6807.437,125.7549.3476,148.9707a1.8858,1.8858,0,0,0,1.9878,2.1436l.9253.0117c1.9825.0224,2.2676,1.042,2.2227,2.1308l.0644,18.8262c-.0058.8379-.6606,2.1777-2.7011,2.1016-.86-.0059.2148.0117-.6431.0039-1.772-.0117-1.9243,1.8974-1.9185,2.4365.1573,18.7412-.0317,33.5342-.102,54.3008.0615,3.6455,2.0264,7.6533,7.7622,7.7275Z" transform="translate(-190.8199 -135.6931)"/></g><rect class="cls-2" x="386.1987" y="75.219" width="85.999" height="15"/></svg>